<svg version="1.1" id="Layer_1" xmlns="http://www.w3.org/2000/svg" xmlns:xlink="http://www.w3.org/1999/xlink" x="0px" y="0px" viewBox="0 0 177.58 32.883" style="enable-background:new 0 0 177.58 32.883;" xml:space="preserve">
  <g className="mural-logo letter-m">
    <path fill="#ED1C65" d="M32.883,32.233c0,0.358-0.293,0.65-0.65,0.65H0.65c-0.358,0-0.65-0.293-0.65-0.65V0.65 C0,0.293,0.292,0,0.65,0h31.583c0.358,0,0.65,0.293,0.65,0.65V32.233z" />
    <path fill="#FFFFFF" d="M22.73,11.565l0.003,9.914c0,0.196-0.159,0.355-0.355,0.355h-2.572 c-0.196,0-0.355-0.157-0.355-0.354c0.001-1.162,0.003-4.798,0.003-4.943c-1.057,1.45-2.096,2.876-3.176,4.359 c-0.212-0.281-3.098-4.328-3.254-4.587c0,0.185-0.009,3.997-0.011,5.189c0,0.196-0.159,0.353-0.355,0.353h-2.489 c-0.196,0-0.355-0.159-0.355-0.355l-0.005-9.93c0-0.196,0.159-0.355,0.355-0.355l2.286-0.002c0.114,0,0.22,0.054,0.287,0.146 l3.512,4.829l3.551-4.83c0.067-0.091,0.173-0.145,0.286-0.145h2.29C22.571,11.211,22.73,11.37,22.73,11.565" />
  </g>
  <g className="mural-logo letter-u">
    <path fill="#ED1C65" d="M68.971,32.233c0,0.358-0.293,0.65-0.65,0.65H36.738c-0.358,0-0.65-0.293-0.65-0.65V0.65 c0-0.358,0.293-0.65,0.65-0.65h31.583c0.358,0,0.65,0.293,0.65,0.65V32.233z" />
    <path fill="#FFFFFF" d="M57.721,11.024c0.212,0,0.384,0.171,0.384,0.383c0,1.064,0.001,4.073,0.001,5.549 c-0.039,1.298-0.458,2.49-1.407,3.431c-0.788,0.783-1.768,1.177-2.849,1.368c-0.662,0.117-1.328,0.125-1.987,0.075 c-1.39-0.105-2.661-0.527-3.647-1.579c-0.661-0.704-1.043-1.551-1.184-2.497c-0.075-0.505-0.095-1.021-0.099-1.532 c-0.01-1.239-0.001-3.839,0.002-4.817c0.001-0.212,0.173-0.382,0.384-0.382h2.428c0.212,0,0.384,0.172,0.384,0.384 c0,0.972,0,3.542,0.012,4.766c0.006,0.556,0.048,1.116,0.265,1.64c0.184,0.444,0.467,0.791,0.905,1.03 c0.583,0.318,1.205,0.323,1.811,0.221c0.826-0.139,1.378-0.661,1.596-1.483c0.076-0.288,0.114-0.594,0.116-0.893 c0-1.364,0.002-4.246,0.003-5.284c0-0.212,0.172-0.383,0.384-0.383H57.721z" />
  </g>
  <g className="mural-logo letter-r">
    <path fill="#ED1C65" d="M105.055,0.966c0-0.532-0.435-0.966-0.966-0.966H73.138c-0.532,0-0.966,0.435-0.966,0.966v30.95 c0,0.532,0.435,0.966,0.966,0.966h23.05l8.867-8.867V0.966z"/>
    <path fill="#FFFFFF" d="M88.992,11.119c0.496,0,1.201,0.109,1.474,0.176c1.069,0.263,1.944,0.819,2.531,1.762 c0.94,1.51,0.756,3.727-0.885,4.839c-0.174,0.118-0.344,0.243-0.552,0.39c0.048,0.085,1.542,2.404,2.061,3.209 c0.076,0.117-0.009,0.272-0.148,0.272L90.2,21.764c-0.132,0-0.254-0.067-0.326-0.178l-1.738-2.711h-1.385l-0.002,2.496 c0,0.213-0.173,0.386-0.387,0.387l-2.446,0.001c-0.214,0-0.387-0.173-0.387-0.387l-0.004-9.866c0-0.214,0.173-0.387,0.387-0.387 H88.992z M86.773,16.281c0,0,1.544,0.005,2.241,0.005c0.19,0,0.413-0.052,0.587-0.137c0.42-0.208,0.641-0.615,0.641-1.088 c0-0.528-0.199-0.79-0.605-1.025c-0.239-0.138-0.472-0.173-0.725-0.173c-0.712,0-1.406,0.002-2.135,0.002 C86.776,14.683,86.773,16.281,86.773,16.281" />
    <polygon fill="#B31E48" points="87.875,32.883 96.188,32.883 96.188,24.771" />
    <path fill="#EF5EA1" d="M105.055,24.016h-7.901c-0.532,0-0.966,0.435-0.966,0.966v7.901L105.055,24.016z" />
  </g>
  <g className="mural-logo letter-a">
    <path fill="#ED1C65" d="M141.163,32.233c0,0.358-0.293,0.65-0.65,0.65h-31.583c-0.358,0-0.65-0.293-0.65-0.65V0.65 c0-0.358,0.293-0.65,0.65-0.65h31.583c0.357,0,0.65,0.293,0.65,0.65V32.233z" />
    <path fill="#FFFFFF" d="M126.207,11.118l4.735,10.301c0.072,0.157-0.042,0.337-0.216,0.337l-2.865,0.007 c-0.19,0-0.362-0.114-0.435-0.29l-0.444-1.067h-4.589l-0.462,1.07c-0.074,0.173-0.244,0.285-0.432,0.284l-2.864-0.005 c-0.174,0-0.289-0.181-0.215-0.338l4.79-10.3H126.207z M125.795,17.802l-1.111-2.942l-1.122,2.942H125.795z" />
  </g>
  <g className="mural-logo letter-l">
    <path fill="#ED1C65" d="M177.58,32.233c0,0.358-0.292,0.65-0.65,0.65h-31.583c-0.358,0-0.65-0.292-0.65-0.65V0.65 c0-0.358,0.293-0.65,0.65-0.65h31.583c0.358,0,0.65,0.293,0.65,0.65V32.233z"/>
    <path fill="#FFFFFF" d="M160.288,11.536l0.004,7.499l4.503,0.004c0.217,0,0.392,0.176,0.392,0.393l0,1.951 c0,0.217-0.176,0.393-0.393,0.393l-7.32-0.004c-0.217,0-0.393-0.176-0.393-0.393l0.004-9.843c0-0.217,0.176-0.393,0.393-0.393 h2.416C160.112,11.143,160.288,11.319,160.288,11.536" />
  </g>
</svg>
